<svg xmlns="http://www.w3.org/2000/svg" width="800" height="450" viewBox="0 0 800 450" role="img">
<style>
text{font-family:-apple-system,BlinkMacSystemFont,"Segoe UI","PingFang SC","Microsoft YaHei",Arial,sans-serif;fill:#17212d}
.small{font-size:14px;fill:#5d6b79} .label{font-size:16px;font-weight:600} .title{font-size:20px;font-weight:700}
.axis{stroke:#7b8794;stroke-width:1.2} .grid{stroke:#e3e8ee;stroke-width:1} .point{fill:#2447a8}
</style>

<text x="40" y="35" class="title">Irregular OU simulation：真实 ACF 与 pair-kernel estimate</text>
<line x1="80" y1="365.0" x2="755" y2="365.0" class="grid"/><line x1="80" y1="290.0" x2="755" y2="290.0" class="grid"/><line x1="80" y1="215.0" x2="755" y2="215.0" class="grid"/><line x1="80" y1="140.0" x2="755" y2="140.0" class="grid"/><line x1="80" y1="65.0" x2="755" y2="65.0" class="grid"/><line x1="80" y1="365" x2="755" y2="365" class="axis"/><line x1="80" y1="65" x2="80" y2="365" class="axis"/>
<text x="68" y="370.0" text-anchor="end" class="small">0</text><text x="68" y="295.0" text-anchor="end" class="small">0.25</text><text x="68" y="220.0" text-anchor="end" class="small">0.5</text><text x="68" y="145.0" text-anchor="end" class="small">0.75</text><text x="68" y="70.0" text-anchor="end" class="small">1</text><text x="80.0" y="392" text-anchor="middle" class="small">0</text><text x="192.5" y="392" text-anchor="middle" class="small">30</text><text x="305.0" y="392" text-anchor="middle" class="small">60</text><text x="417.5" y="392" text-anchor="middle" class="small">90</text><text x="530.0" y="392" text-anchor="middle" class="small">120</text>
<polyline points="80.0,65.0 98.8,97.7 117.5,126.9 136.2,152.9 155.0,176.0 173.8,196.6 192.5,215.0 211.2,231.4 230.0,245.9 248.8,258.9 267.5,270.5 286.2,280.8 305.0,290.0 323.8,298.2 342.5,305.5 361.2,312.0 380.0,317.8 398.8,322.9 417.5,327.5 436.2,331.6 455.0,335.2 473.8,338.5 492.5,341.4 511.2,344.0 530.0,346.2 548.8,348.3 567.5,350.1 586.2,351.7 605.0,353.2 623.8,354.5 642.5,355.6 661.2,356.6 680.0,357.6 698.8,358.4 717.5,359.1 736.2,359.7 755.0,360.3" fill="none" stroke="#17212d" stroke-width="3" stroke-dasharray="8 5"/>
<polyline points="80.0,65.0 98.8,101.0 117.5,121.3 136.2,145.4 155.0,168.7 173.8,190.7 192.5,210.4 211.2,227.3 230.0,245.0 248.8,261.5 267.5,272.9 286.2,280.3 305.0,285.7 323.8,291.5 342.5,302.4 361.2,315.6 380.0,321.2 398.8,321.1 417.5,324.0 436.2,327.6 455.0,329.4 473.8,329.2 492.5,328.0 511.2,327.7 530.0,327.8 548.8,329.9 567.5,333.5 586.2,336.1 605.0,339.7 623.8,347.0 642.5,354.4 661.2,358.4 680.0,359.4 698.8,358.9 717.5,361.7 736.2,368.9 755.0,374.3" fill="none" stroke="#2447a8" stroke-width="3"/>
<circle cx="80.0" cy="65.0" r="3" fill="#2447a8"/><circle cx="98.8" cy="101.0" r="3" fill="#2447a8"/><circle cx="117.5" cy="121.3" r="3" fill="#2447a8"/><circle cx="136.2" cy="145.4" r="3" fill="#2447a8"/><circle cx="155.0" cy="168.7" r="3" fill="#2447a8"/><circle cx="173.8" cy="190.7" r="3" fill="#2447a8"/><circle cx="192.5" cy="210.4" r="3" fill="#2447a8"/><circle cx="211.2" cy="227.3" r="3" fill="#2447a8"/><circle cx="230.0" cy="245.0" r="3" fill="#2447a8"/><circle cx="248.8" cy="261.5" r="3" fill="#2447a8"/><circle cx="267.5" cy="272.9" r="3" fill="#2447a8"/><circle cx="286.2" cy="280.3" r="3" fill="#2447a8"/><circle cx="305.0" cy="285.7" r="3" fill="#2447a8"/><circle cx="323.8" cy="291.5" r="3" fill="#2447a8"/><circle cx="342.5" cy="302.4" r="3" fill="#2447a8"/><circle cx="361.2" cy="315.6" r="3" fill="#2447a8"/><circle cx="380.0" cy="321.2" r="3" fill="#2447a8"/><circle cx="398.8" cy="321.1" r="3" fill="#2447a8"/><circle cx="417.5" cy="324.0" r="3" fill="#2447a8"/><circle cx="436.2" cy="327.6" r="3" fill="#2447a8"/><circle cx="455.0" cy="329.4" r="3" fill="#2447a8"/><circle cx="473.8" cy="329.2" r="3" fill="#2447a8"/><circle cx="492.5" cy="328.0" r="3" fill="#2447a8"/><circle cx="511.2" cy="327.7" r="3" fill="#2447a8"/><circle cx="530.0" cy="327.8" r="3" fill="#2447a8"/><circle cx="548.8" cy="329.9" r="3" fill="#2447a8"/><circle cx="567.5" cy="333.5" r="3" fill="#2447a8"/><circle cx="586.2" cy="336.1" r="3" fill="#2447a8"/><circle cx="605.0" cy="339.7" r="3" fill="#2447a8"/><circle cx="623.8" cy="347.0" r="3" fill="#2447a8"/><circle cx="642.5" cy="354.4" r="3" fill="#2447a8"/><circle cx="661.2" cy="358.4" r="3" fill="#2447a8"/><circle cx="680.0" cy="359.4" r="3" fill="#2447a8"/><circle cx="698.8" cy="358.9" r="3" fill="#2447a8"/><circle cx="717.5" cy="361.7" r="3" fill="#2447a8"/><circle cx="736.2" cy="368.9" r="3" fill="#2447a8"/><circle cx="755.0" cy="374.3" r="3" fill="#2447a8"/>
<line x1="520" y1="85" x2="565" y2="85" stroke="#17212d" stroke-width="3" stroke-dasharray="8 5"/><text x="575" y="90" class="small">true OU ACF</text>
<line x1="520" y1="112" x2="565" y2="112" stroke="#2447a8" stroke-width="3"/><text x="575" y="117" class="small">Gaussian pair-kernel</text>
<text x="417.5" y="425" text-anchor="middle" class="label">clock-time lag (minutes)</text>
<text x="22" y="220" text-anchor="middle" class="label" transform="rotate(-90 22 220)">autocorrelation</text>
<text x="95" y="95" class="small">true half-life = 30m; fitted kernel half-life ≈ 33.2m</text>

</svg>